<svg width="512" height="512" viewBox="0 0 512 512" fill="none" xmlns="http://www.w3.org/2000/svg">
<circle cx="256" cy="256" r="256" fill="url(#paint0_linear_2_2)"/>
<path d="M256 506.115L39.3941 130.943L472.606 130.943L256 506.115Z" fill="url(#paint1_linear_2_2)"/>
<path d="M256 506.115L39.3941 130.943L472.606 130.943L256 506.115Z" fill="url(#paint2_linear_2_2)" fill-opacity="0.2"/>
<path d="M288.472 416.895C288.301 417.191 288.082 417.44 287.814 417.643C287.544 417.835 287.257 417.974 286.952 418.062C286.641 418.145 286.323 418.168 285.997 418.13C285.664 418.088 285.349 417.982 285.053 417.811L280.719 415.309C280.423 415.138 280.177 414.921 279.982 414.657C279.779 414.39 279.639 414.103 279.563 413.795C279.48 413.484 279.457 413.166 279.494 412.84C279.529 412.503 279.632 412.186 279.803 411.89L284.051 404.532C284.222 404.236 284.443 403.993 284.713 403.801C284.98 403.598 285.27 403.455 285.581 403.372C285.885 403.284 286.204 403.262 286.537 403.303C286.863 403.341 287.173 403.446 287.469 403.616L289.425 404.746L288.174 406.913L286.218 405.784L281.97 413.141L286.305 415.644L290.553 408.286C290.724 407.99 290.941 407.744 291.204 407.549C291.471 407.346 291.761 407.203 292.072 407.119C292.383 407.036 292.705 407.015 293.038 407.057C293.364 407.095 293.675 407.199 293.971 407.37L298.295 409.866C298.591 410.037 298.84 410.256 299.043 410.524C299.239 410.787 299.378 411.074 299.461 411.386C299.545 411.697 299.566 412.019 299.524 412.352C299.486 412.678 299.382 412.989 299.211 413.285L294.841 420.854C294.67 421.15 294.451 421.399 294.183 421.602C293.92 421.798 293.633 421.937 293.321 422.021C293.01 422.104 292.692 422.127 292.366 422.089C292.033 422.047 291.718 421.941 291.422 421.77L289.477 420.647L290.728 418.48L292.673 419.603L297.044 412.034L292.72 409.537L288.472 416.895ZM306.265 396.257C306.554 396.424 306.793 396.637 306.981 396.896C307.174 397.148 307.311 397.424 307.391 397.724C307.469 398.013 307.49 398.317 307.457 398.636C307.416 398.951 307.312 399.253 307.145 399.542L303.795 405.346L308.34 407.97L307.144 410.042L291.339 400.917L292.536 398.845L294.439 399.944C294.183 399.768 293.977 399.555 293.821 399.305C293.657 399.051 293.544 398.784 293.481 398.503C293.41 398.218 293.395 397.927 293.434 397.63C293.478 397.327 293.579 397.038 293.738 396.763L295.887 393.042C296.053 392.753 296.266 392.514 296.526 392.325C296.778 392.132 297.052 391.999 297.348 391.926C297.641 391.842 297.945 391.82 298.26 391.86C298.579 391.894 298.883 391.994 299.172 392.161L306.265 396.257ZM305.063 398.339L297.969 394.244L294.618 400.048L301.712 404.143L305.063 398.339ZM311.282 381.83L306.979 389.283L309.463 390.717L313.766 383.264L315.849 384.467L311.546 391.92C311.383 392.202 311.176 392.439 310.924 392.632C310.664 392.82 310.388 392.957 310.095 393.041C309.799 393.115 309.491 393.134 309.173 393.101C308.858 393.06 308.556 392.956 308.267 392.789L301.174 388.694C300.885 388.527 300.644 388.317 300.451 388.065C300.262 387.806 300.129 387.532 300.052 387.243C299.972 386.943 299.952 386.635 299.992 386.321C300.026 386.002 300.124 385.701 300.287 385.419L303.388 380.049C303.555 379.76 303.768 379.521 304.027 379.333C304.279 379.14 304.553 379.007 304.849 378.934C305.142 378.849 305.446 378.827 305.761 378.868C306.08 378.902 306.384 379.002 306.673 379.169L311.282 381.83ZM302.37 386.622L304.896 388.081L307.997 382.71L305.47 381.251L302.37 386.622ZM309.877 373.619L316.971 377.714L320.071 372.344L318.168 371.245L319.371 369.163L321.274 370.261C321.563 370.428 321.801 370.641 321.99 370.9C322.183 371.153 322.319 371.429 322.4 371.729C322.477 372.018 322.499 372.322 322.465 372.641C322.425 372.955 322.321 373.257 322.154 373.546L319.053 378.917C318.891 379.198 318.683 379.436 318.431 379.628C318.172 379.817 317.895 379.954 317.602 380.038C317.306 380.112 316.999 380.131 316.68 380.098C316.365 380.057 316.063 379.953 315.774 379.786L308.681 375.691C308.392 375.524 308.151 375.314 307.958 375.062C307.77 374.803 307.637 374.529 307.559 374.24C307.479 373.94 307.459 373.632 307.5 373.317C307.534 372.999 307.632 372.698 307.795 372.416L310.895 367.046C311.062 366.757 311.275 366.518 311.534 366.33C311.786 366.137 312.061 366.004 312.357 365.931C312.65 365.846 312.954 365.824 313.268 365.865C313.587 365.899 313.891 365.999 314.18 366.166L316.083 367.264L314.881 369.347L312.978 368.248L309.877 373.619ZM313.727 362.141L315.314 359.392L311.847 357.39L313.049 355.308L316.516 357.31L318.653 353.609L320.735 354.812L318.599 358.512L325.693 362.607L327.829 358.907L329.911 360.11L327.775 363.81C327.612 364.092 327.405 364.329 327.153 364.522C326.894 364.71 326.617 364.847 326.324 364.931C326.024 365.012 325.715 365.035 325.396 365.001C325.081 364.961 324.779 364.857 324.49 364.69L317.397 360.595L315.81 363.343L313.727 362.141ZM323.94 349.262L333.116 354.56L331.92 356.632L320.661 350.131L321.857 348.059L323.845 349.207C323.578 349.034 323.357 348.822 323.183 348.571C323.001 348.316 322.875 348.046 322.805 347.761C322.731 347.465 322.716 347.165 322.76 346.861C322.797 346.553 322.897 346.259 323.059 345.977L324.335 343.767C324.502 343.478 324.713 343.243 324.968 343.062C325.22 342.869 325.496 342.732 325.797 342.652C326.09 342.567 326.394 342.546 326.708 342.586C327.027 342.62 327.331 342.72 327.62 342.887L329.523 343.986L328.321 346.068L326.418 344.97L323.94 349.262ZM339.224 333.433L334.921 340.886L337.405 342.32L341.708 334.868L343.791 336.07L339.488 343.523C339.325 343.805 339.118 344.042 338.865 344.235C338.606 344.423 338.33 344.56 338.037 344.644C337.741 344.718 337.433 344.738 337.115 344.704C336.8 344.663 336.498 344.559 336.209 344.393L329.115 340.297C328.826 340.13 328.586 339.921 328.393 339.669C328.204 339.409 328.071 339.135 327.994 338.846C327.913 338.546 327.894 338.238 327.934 337.924C327.968 337.605 328.066 337.305 328.229 337.023L331.33 331.652C331.497 331.363 331.71 331.125 331.969 330.936C332.221 330.743 332.495 330.61 332.791 330.537C333.084 330.452 333.388 330.43 333.703 330.471C334.022 330.505 334.326 330.605 334.615 330.772L339.224 333.433ZM330.312 338.225L332.838 339.684L335.939 334.313L333.412 332.855L330.312 338.225ZM351.951 316.932C352.533 315.924 352.709 314.992 352.48 314.136C352.25 313.28 351.632 312.561 350.624 311.979L346.078 309.355C345.585 309.07 345.103 308.886 344.634 308.803C344.165 308.72 343.718 308.739 343.291 308.859C342.862 308.968 342.465 309.176 342.1 309.482C341.735 309.788 341.41 310.188 341.125 310.682L337.927 316.221L348.753 322.471L351.951 316.932ZM349.669 325.889L334.509 317.137L338.958 309.43C339.426 308.62 339.974 307.964 340.602 307.462C341.227 306.949 341.905 306.597 342.634 306.408C343.361 306.207 344.123 306.173 344.921 306.304C345.723 306.429 346.526 306.723 347.329 307.187L351.875 309.812C352.678 310.276 353.335 310.824 353.844 311.456C354.357 312.081 354.711 312.76 354.908 313.494C355.102 314.217 355.136 314.979 355.011 315.781C354.884 316.572 354.586 317.372 354.118 318.183L349.669 325.889ZM360 297.447L355.697 304.9L358.182 306.335L362.485 298.882L364.567 300.084L360.264 307.537C360.101 307.819 359.894 308.056 359.642 308.249C359.383 308.438 359.106 308.574 358.813 308.659C358.517 308.732 358.21 308.752 357.891 308.718C357.576 308.677 357.274 308.574 356.985 308.407L349.892 304.311C349.603 304.145 349.362 303.935 349.169 303.683C348.981 303.424 348.848 303.149 348.77 302.86C348.69 302.56 348.67 302.253 348.711 301.938C348.744 301.619 348.843 301.319 349.005 301.037L352.106 295.667C352.273 295.378 352.486 295.139 352.745 294.95C352.997 294.757 353.272 294.624 353.568 294.551C353.861 294.467 354.165 294.445 354.479 294.486C354.798 294.519 355.102 294.619 355.391 294.786L360 297.447ZM351.088 302.239L353.615 303.698L356.715 298.328L354.189 296.869L351.088 302.239ZM368.425 293.403L354.566 291.406L355.817 289.239L366.552 290.884L359.766 282.399L361.017 280.232L369.676 291.236L368.425 293.403ZM374.466 272.393L370.163 279.846L372.647 281.28L376.95 273.827L379.033 275.029L374.73 282.482C374.567 282.764 374.359 283.002 374.107 283.194C373.848 283.383 373.572 283.52 373.279 283.604C372.983 283.677 372.675 283.697 372.356 283.664C372.041 283.623 371.74 283.519 371.451 283.352L364.357 279.257C364.068 279.09 363.827 278.88 363.635 278.628C363.446 278.369 363.313 278.095 363.236 277.806C363.155 277.506 363.135 277.198 363.176 276.883C363.21 276.564 363.308 276.264 363.471 275.982L366.571 270.612C366.738 270.323 366.951 270.084 367.211 269.895C367.463 269.703 367.737 269.57 368.033 269.496C368.326 269.412 368.63 269.39 368.945 269.431C369.264 269.465 369.567 269.565 369.856 269.732L374.466 272.393ZM365.553 277.185L368.08 278.643L371.181 273.273L368.654 271.814L365.553 277.185ZM366.644 260.477L382.237 269.479L381.041 271.551L365.447 262.549L366.644 260.477ZM387.778 255.073C388.067 255.24 388.305 255.453 388.494 255.712C388.687 255.964 388.823 256.241 388.904 256.541C388.981 256.83 389.003 257.134 388.969 257.453C388.932 257.76 388.831 258.059 388.664 258.348L385.435 263.94C385.272 264.222 385.065 264.459 384.813 264.652C384.553 264.84 384.277 264.977 383.984 265.061C383.688 265.135 383.381 265.155 383.062 265.121C382.747 265.08 382.445 264.976 382.156 264.81L375.063 260.714C374.774 260.547 374.533 260.338 374.34 260.086C374.152 259.826 374.019 259.552 373.941 259.263C373.861 258.963 373.841 258.655 373.882 258.341C373.915 258.022 374.014 257.722 374.176 257.44L377.405 251.847C377.572 251.558 377.783 251.323 378.038 251.141C378.29 250.949 378.564 250.816 378.861 250.742C379.154 250.658 379.458 250.636 379.772 250.677C380.091 250.711 380.395 250.811 380.684 250.978L387.778 255.073ZM376.259 258.642L383.353 262.737L386.581 257.145L379.488 253.05L376.259 258.642ZM395.535 241.637C395.824 241.803 396.063 242.016 396.251 242.276C396.444 242.528 396.581 242.804 396.661 243.104C396.739 243.393 396.76 243.697 396.727 244.016C396.686 244.331 396.582 244.633 396.415 244.922L393.065 250.725L397.61 253.35L396.414 255.422L380.609 246.297L381.806 244.225L383.709 245.324C383.453 245.148 383.247 244.935 383.091 244.685C382.927 244.431 382.814 244.164 382.751 243.883C382.68 243.598 382.665 243.307 382.705 243.01C382.748 242.707 382.849 242.417 383.008 242.143L385.157 238.421C385.323 238.132 385.536 237.894 385.796 237.705C386.048 237.512 386.322 237.379 386.618 237.306C386.911 237.221 387.215 237.2 387.53 237.24C387.849 237.274 388.153 237.374 388.442 237.541L395.535 241.637ZM394.333 243.719L387.239 239.624L383.888 245.428L390.982 249.523L394.333 243.719ZM395.595 225.151L404.771 230.449L403.569 232.532L394.393 227.234L391.64 232.002L400.816 237.299L399.62 239.371L388.361 232.871L389.557 230.799L391.545 231.947C391.278 231.774 391.057 231.562 390.883 231.311C390.701 231.056 390.575 230.786 390.505 230.501C390.432 230.205 390.417 229.905 390.46 229.601C390.497 229.293 390.597 228.999 390.76 228.717L392.31 226.031C392.469 225.757 392.672 225.526 392.92 225.341C393.161 225.151 393.428 225.014 393.721 224.929C394.007 224.841 394.306 224.811 394.618 224.841C394.927 224.86 395.221 224.945 395.5 225.096C395.233 224.923 395.01 224.715 394.832 224.471C394.65 224.216 394.524 223.946 394.454 223.661C394.38 223.365 394.366 223.065 394.409 222.761C394.446 222.453 394.546 222.159 394.709 221.877L396.259 219.192C396.426 218.903 396.639 218.664 396.898 218.475C397.15 218.283 397.424 218.15 397.72 218.076C398.014 217.992 398.317 217.97 398.632 218.011C398.951 218.044 399.255 218.145 399.544 218.311L408.72 223.609L407.518 225.692L398.341 220.394L395.595 225.151ZM411.66 207.969L407.357 215.422L409.842 216.857L414.145 209.404L416.227 210.606L411.924 218.059C411.762 218.341 411.554 218.578 411.302 218.771C411.043 218.96 410.767 219.096 410.473 219.181C410.177 219.254 409.87 219.274 409.551 219.24C409.236 219.199 408.934 219.096 408.645 218.929L401.552 214.833C401.263 214.666 401.022 214.457 400.829 214.205C400.641 213.946 400.508 213.671 400.43 213.382C400.35 213.082 400.33 212.775 400.371 212.46C400.405 212.141 400.503 211.841 400.666 211.559L403.766 206.189C403.933 205.9 404.146 205.661 404.405 205.472C404.658 205.279 404.932 205.146 405.228 205.073C405.521 204.989 405.825 204.967 406.14 205.007C406.458 205.041 406.762 205.141 407.051 205.308L411.66 207.969ZM402.748 212.761L405.275 214.22L408.375 208.85L405.849 207.391L402.748 212.761ZM423.985 197.17L422.783 199.252L413.606 193.954L410.256 199.758L419.432 205.056L418.235 207.128L406.977 200.628L408.173 198.556L410.16 199.703C409.894 199.531 409.673 199.319 409.499 199.067C409.317 198.812 409.191 198.542 409.121 198.257C409.047 197.961 409.032 197.661 409.076 197.358C409.113 197.05 409.213 196.755 409.375 196.473L411.524 192.752C411.691 192.463 411.904 192.224 412.163 192.036C412.415 191.843 412.689 191.71 412.985 191.637C413.278 191.552 413.582 191.53 413.897 191.571C414.216 191.605 414.52 191.705 414.809 191.872L423.985 197.17ZM414.35 187.857L415.937 185.109L412.469 183.107L413.672 181.024L417.139 183.026L419.275 179.326L421.358 180.528L419.222 184.229L426.315 188.324L428.451 184.624L430.534 185.826L428.398 189.526C428.235 189.808 428.028 190.046 427.775 190.238C427.516 190.427 427.24 190.563 426.947 190.648C426.647 190.728 426.337 190.752 426.018 190.718C425.704 190.677 425.402 190.573 425.113 190.407L418.019 186.311L416.432 189.06L414.35 187.857Z" fill="url(#paint3_linear_2_2)"/>
<defs>
<linearGradient id="paint0_linear_2_2" x1="-6.39772e-06" y1="107" x2="468" y2="439" gradientUnits="userSpaceOnUse">
<stop stop-color="#013540"/>
<stop offset="1" stop-color="#36565C"/>
</linearGradient>
<linearGradient id="paint1_linear_2_2" x1="413" y1="353" x2="-44" y2="85" gradientUnits="userSpaceOnUse">
<stop stop-color="#1A1919"/>
<stop offset="0.9999" stop-color="#757373"/>
<stop offset="1" stop-color="#767373"/>
</linearGradient>
<linearGradient id="paint2_linear_2_2" x1="49" y1="392" x2="588" y2="64" gradientUnits="userSpaceOnUse">
<stop stop-color="#1A1919"/>
<stop offset="1" stop-color="#757373"/>
</linearGradient>
<linearGradient id="paint3_linear_2_2" x1="239.5" y1="356" x2="484.5" y2="213.5" gradientUnits="userSpaceOnUse">
<stop offset="0.012005" stop-color="#820C0C"/>
<stop offset="1" stop-color="#A30F0F"/>
</linearGradient>
</defs>
</svg>
